<?xml version="1.0" encoding="UTF-8" standalone="no"?>
<!DOCTYPE svg PUBLIC "-//W3C//DTD SVG 1.1//EN" "http://www.w3.org/Graphics/SVG/1.1/DTD/svg11.dtd">
<svg width="100%" height="100%" viewBox="0 0 1600 512" version="1.1" xmlns="http://www.w3.org/2000/svg" xmlns:xlink="http://www.w3.org/1999/xlink" xml:space="preserve" xmlns:serif="http://www.serif.com/" style="fill-rule:evenodd;clip-rule:evenodd;stroke-linejoin:round;stroke-miterlimit:2;">
    <g id="B">
        <path d="M96.808,370.653L96.808,132.694C96.808,83.705 136.581,43.931 185.57,43.931L292.66,43.931C348.856,43.931 394.48,89.555 394.48,145.751C394.48,185.484 371.671,219.932 338.444,236.705C383.851,252.851 416.398,296.227 416.398,347.145C416.398,411.816 363.894,464.32 299.223,464.32L190.475,464.32C138.779,464.32 96.808,422.349 96.808,370.653Z" style="fill:rgb(170,204,75);"/>
        <g transform="matrix(0.624492,0.86812,-0.86812,0.624492,217.122,-196.158)">
            <path d="M282.819,117.362C296.858,117.362 308.256,128.76 308.256,142.798C308.256,168.577 299.609,234.288 282.819,235.628C268.825,236.745 257.383,185.37 257.383,150.679C257.383,132.23 268.78,117.362 282.819,117.362Z" style="fill:rgb(97,84,58);"/>
        </g>
        <g transform="matrix(0.452958,0.261515,-0.261515,0.452958,74.6599,-6.52256)">
            <path d="M282.819,117.362C296.858,117.362 308.256,128.76 308.256,142.798C308.256,168.577 299.609,234.288 282.819,235.628C268.825,236.745 257.383,185.37 257.383,150.679C257.383,132.23 268.78,117.362 282.819,117.362Z" style="fill:rgb(97,84,58);"/>
        </g>
        <g transform="matrix(-0.469531,1.1332,-1.1332,-0.469531,589.09,100.984)">
            <path d="M282.819,117.362C298.894,117.362 307.302,136.49 307.302,150.529C307.302,188.457 300.552,235.628 282.819,235.628C268.78,235.628 257.383,185.37 257.383,150.679C257.383,123.555 272.43,117.362 282.819,117.362Z" style="fill:rgb(97,84,58);"/>
        </g>
        <g transform="matrix(-0.402523,0.232397,-0.232397,-0.402523,302.898,365.289)">
            <path d="M282.819,117.362C298.894,117.362 307.302,136.49 307.302,150.529C307.302,188.457 300.552,235.628 282.819,235.628C268.78,235.628 257.383,185.37 257.383,150.679C257.383,123.555 272.43,117.362 282.819,117.362Z" style="fill:rgb(97,84,58);"/>
        </g>
        <g transform="matrix(1.11934e-16,0.594121,-0.594121,1.11934e-16,352.336,75.3675)">
            <path d="M282.819,117.362C298.894,117.362 307.302,136.49 307.302,150.529C307.302,188.457 300.552,235.628 282.819,235.628C268.78,235.628 257.383,188.433 257.383,153.742C257.383,131.121 268.647,117.362 282.819,117.362Z" style="fill:rgb(97,84,58);"/>
        </g>
        <g transform="matrix(0.801268,-9.86076e-32,9.86076e-32,0.801268,-5.35997,78.3663)">
            <clipPath id="_clip1">
                <path d="M127.508,364.78L127.508,67.802C127.508,6.662 177.145,-42.975 238.285,-42.975L371.936,-42.975C442.069,-42.975 499.008,13.964 499.008,84.097C499.008,133.685 470.543,176.677 429.075,197.61C485.743,217.761 526.363,271.895 526.363,335.441C526.363,416.152 460.836,481.679 380.125,481.679L244.406,481.679C179.888,481.679 127.508,429.298 127.508,364.78Z"/>
            </clipPath>
            <g clip-path="url(#_clip1)">
                <circle cx="126.213" cy="215.618" r="99.995" style="fill:rgb(214,219,94);"/>
            </g>
        </g>
    </g>
    <g id="k">
        <g transform="matrix(1.30606,0,0,1.01565,-112.716,-3.50807)">
            <path d="M506.205,75.036C506.205,54.623 493.317,38.051 477.443,38.051C461.569,38.051 448.682,54.623 448.682,75.036L448.682,425.459C448.682,445.872 461.569,462.445 477.443,462.445C493.317,462.445 506.205,445.872 506.205,425.459L506.205,75.036Z" style="fill:rgb(170,204,75);"/>
        </g>
        <g transform="matrix(0.801237,0.939234,-0.486787,0.415266,337.311,-288.21)">
            <path d="M506.205,93.545C506.205,62.917 493.317,38.051 477.443,38.051C461.569,38.051 448.682,62.917 448.682,93.545L448.682,406.95C448.682,437.579 461.569,462.445 477.443,462.445C493.317,462.445 506.205,437.579 506.205,406.95L506.205,93.545Z" style="fill:rgb(170,204,75);"/>
        </g>
        <g transform="matrix(-1.09115,0.629977,-0.279699,-0.484452,1235.16,181.316)">
            <path d="M506.205,102.832C506.205,67.078 493.317,38.051 477.443,38.051C461.569,38.051 448.682,67.078 448.682,102.832L448.682,397.664C448.682,433.417 461.569,462.445 477.443,462.445C493.317,462.445 506.205,433.417 506.205,397.664L506.205,102.832Z" style="fill:rgb(170,204,75);"/>
        </g>
    </g>
    <g transform="matrix(1,0,0,1,10.5104,0)">
        <g id="e">
            <path d="M985.317,436.937C966.226,453.844 926.186,469.686 887.722,469.686C808.254,469.686 743.736,403.262 743.736,321.445C743.736,236.402 792.053,166.657 877.096,166.657C953.85,166.657 1004.18,235.352 1004.18,290.941C1004.18,311.529 985.475,331.789 964.887,331.789L813.584,331.789C814.14,367.781 852.028,401.55 890.427,401.55C911.961,401.55 931.004,392.404 941.298,382.692C947.163,377.158 955.311,368.943 973.311,368.943C993.334,368.943 1004.83,383.364 1004.83,405.526C1004.83,418.654 993.488,429.701 985.317,436.937ZM933.347,280.787C930.821,252.092 903.334,227.984 874.897,227.984C846.461,227.984 821.2,256.226 817.956,280.787L933.347,280.787Z" style="fill:rgb(170,204,75);"/>
        </g>
    </g>
    <g id="b" transform="matrix(1,0,0,1,593.434,0)">
        <g transform="matrix(1.30606,0,0,1.01565,-112.716,-3.50807)">
            <path d="M506.205,75.036C506.205,54.623 493.317,38.051 477.443,38.051C461.569,38.051 448.682,54.623 448.682,75.036L448.682,425.459C448.682,445.872 461.569,462.445 477.443,462.445C493.317,462.445 506.205,445.872 506.205,425.459L506.205,75.036Z" style="fill:rgb(170,204,75);"/>
        </g>
        <g transform="matrix(1,0,0,1,-572.673,0)">
            <path d="M1181.83,402.914C1199.88,402.914 1243.97,387.362 1243.97,314.338C1243.97,264.88 1216.75,231.442 1178.35,231.442C1156.81,231.442 1130.16,249.699 1120.91,298.68C1119.42,306.603 1097.18,216.239 1104.95,208.567C1131.01,182.813 1149.22,167.704 1187.68,167.704C1267.15,167.704 1313.83,231.156 1313.83,321.35C1313.83,406.393 1256.55,468.116 1192.97,468.116C1150.77,468.116 1122.12,442.25 1092.69,390.745C1082.48,372.868 1111.99,328.634 1112.9,330.975C1130.21,375.412 1150.64,402.914 1181.83,402.914Z" style="fill:rgb(170,204,75);"/>
        </g>
    </g>
    <g id="i" transform="matrix(1,0,0,1,917.804,0)">
        <g transform="matrix(1.30606,0,0,0.699535,-112.716,145.297)">
            <path d="M506.205,91.75C506.205,62.112 493.317,38.051 477.443,38.051C461.569,38.051 448.682,62.112 448.682,91.75L448.682,408.745C448.682,438.383 461.569,462.445 477.443,462.445C493.317,462.445 506.205,438.383 506.205,408.745L506.205,91.75Z" style="fill:rgb(170,204,75);"/>
        </g>
        <g transform="matrix(1,0,0,1,-947.383,1)">
            <circle cx="1457.13" cy="83.977" r="46.98" style="fill:rgb(214,219,94);"/>
        </g>
    </g>
</svg>
